<svg width="214" height="82" viewBox="0 0 214 82" fill="none" xmlns="http://www.w3.org/2000/svg">
<path fill-rule="evenodd" clip-rule="evenodd" d="M78.9437 16.2324H0V63.9394H78.9437V16.2324ZM77.2399 17.9362H1.70382V62.2356H77.2399V17.9362Z" fill="#282828"/>
<path fill-rule="evenodd" clip-rule="evenodd" d="M75.536 19.6401H3.40759V60.5318H75.536V19.6401ZM6.81523 54.5835V55.4203H22.6471C29.5268 55.4203 34.6473 53.822 38.0088 50.6255C41.0045 47.7607 42.5023 44.1947 42.5023 39.9276C42.5023 36.7461 41.6576 33.9416 39.9682 31.514C38.2962 29.0865 36.0755 27.3525 33.3062 26.3121C30.5544 25.2717 26.5311 24.7515 21.2364 24.7515H6.81523V25.5884H8.14762C9.48872 25.5884 10.4989 25.9201 11.1781 26.5835C11.6658 27.066 11.9097 28.2647 11.9097 30.1796V49.9922C11.9097 51.7262 11.7181 52.842 11.3349 53.3395C10.7079 54.1688 9.64547 54.5835 8.14762 54.5835H6.81523ZM22.4904 53.8371C20.9925 53.8371 19.1376 53.626 16.9257 53.2038V27.1263C18.9286 26.6891 20.7139 26.4704 22.2814 26.4704C26.4614 26.4704 29.8838 27.6918 32.5486 30.1344C35.2134 32.577 36.5458 35.9168 36.5458 40.1538C36.5458 44.3605 35.2134 47.6928 32.5486 50.1505C29.8838 52.6082 26.5311 53.8371 22.4904 53.8371ZM55.5127 38.4801V26.4252H63.3241C65.1703 26.4252 66.5288 26.576 67.3997 26.8775C68.2879 27.1791 69.0282 27.6691 69.6203 28.3477C70.2299 29.0111 70.7611 30.059 71.214 31.4914H72.1284L71.7887 24.7515H45.4283V25.5884H46.6824C47.5358 25.5884 48.337 25.7693 49.0859 26.1312C49.6258 26.4026 49.9829 26.7268 50.157 27.1037C50.3834 27.6013 50.4966 28.6266 50.4966 30.1796V49.9922C50.4966 51.8317 50.2876 52.9927 49.8696 53.4752C49.2078 54.2141 48.1454 54.5835 46.6824 54.5835H45.4283V55.4203H60.6332V54.5835H59.3531C58.5171 54.5835 57.7159 54.4025 56.9496 54.0407C56.3922 53.7693 56.0265 53.4451 55.8523 53.0681C55.6259 52.5705 55.5127 51.5452 55.5127 49.9922V40.3573H61.9656C63.15 40.3573 64.0382 40.5006 64.6304 40.787C65.24 41.0585 65.7102 41.4731 66.0412 42.031C66.3895 42.5889 66.5724 43.4634 66.5898 44.6546H67.5564V34.2733H66.5898C66.3634 35.947 65.9018 37.0703 65.2052 37.6433C64.5259 38.2012 63.4461 38.4801 61.9656 38.4801H55.5127Z" fill="#282828"/>
<path d="M109.374 23.0477L110.112 33.5722H109.374C108.39 30.4217 106.985 28.1539 105.16 26.7689C103.335 25.3839 101.145 24.6914 98.5899 24.6914C96.4475 24.6914 94.5113 25.2165 92.7815 26.2667C91.0516 27.3016 89.6868 28.9606 88.687 31.2435C87.703 33.5265 87.211 36.365 87.211 39.759C87.211 42.5595 87.6792 44.9871 88.6156 47.0417C89.5519 49.0964 90.9564 50.6717 92.8291 51.7675C94.7176 52.8633 96.868 53.4112 99.2803 53.4112C101.375 53.4112 103.224 52.9851 104.827 52.1328C106.43 51.2652 108.191 49.553 110.112 46.9961L110.85 47.4527C109.231 50.2075 107.342 52.2241 105.184 53.5026C103.026 54.781 100.463 55.4203 97.4949 55.4203C92.1467 55.4203 88.0046 53.5178 85.0686 49.7128C82.8785 46.8819 81.7834 43.5488 81.7834 39.7134C81.7834 36.6238 82.5055 33.7853 83.9497 31.1979C85.3939 28.6105 87.3777 26.6091 89.901 25.1937C92.4403 23.763 95.2096 23.0477 98.2091 23.0477C100.542 23.0477 102.843 23.5956 105.113 24.6914C105.779 25.0262 106.255 25.1937 106.541 25.1937C106.969 25.1937 107.342 25.0491 107.66 24.7599C108.072 24.349 108.366 23.7782 108.541 23.0477H109.374Z" fill="#D34247"/>
<path d="M134.845 44.3478H122.348L120.157 49.2334C119.618 50.4358 119.348 51.3337 119.348 51.9273C119.348 52.3991 119.578 52.8177 120.038 53.1829C120.515 53.533 121.53 53.7613 123.086 53.8678V54.7125H112.921V53.8678C114.27 53.6395 115.143 53.3427 115.539 52.9775C116.349 52.2469 117.245 50.763 118.229 48.5257L129.584 23.0477H130.418L141.654 48.7996C142.558 50.8695 143.376 52.2165 144.106 52.8405C144.851 53.4493 145.883 53.7917 147.2 53.8678V54.7125H134.464V53.8678C135.75 53.807 136.615 53.6015 137.059 53.2514C137.519 52.9014 137.75 52.4752 137.75 51.973C137.75 51.3033 137.432 50.2455 136.797 48.7996L134.845 44.3478ZM134.179 42.6584L128.704 30.1477L123.086 42.6584H134.179Z" fill="#D34247"/>
<path d="M170.125 23.0477V33.7548H169.244C168.958 31.7001 168.442 30.064 167.697 28.8464C166.967 27.6288 165.919 26.6624 164.554 25.947C163.189 25.2317 161.777 24.874 160.317 24.874C158.666 24.874 157.302 25.3611 156.222 26.3352C155.143 27.294 154.604 28.3898 154.604 29.6226C154.604 30.5663 154.945 31.4262 155.627 32.2024C156.611 33.3439 158.952 34.8659 162.65 36.7683C165.665 38.3208 167.72 39.5155 168.815 40.3526C169.926 41.1745 170.775 42.1486 171.363 43.2748C171.966 44.4011 172.267 45.5806 172.267 46.8134C172.267 49.1573 171.315 51.1815 169.411 52.8862C167.522 54.5756 165.086 55.4203 162.102 55.4203C161.166 55.4203 160.285 55.3518 159.46 55.2148C158.968 55.1387 157.944 54.8647 156.389 54.3929C154.85 53.9059 153.874 53.6624 153.461 53.6624C153.064 53.6624 152.747 53.7765 152.509 54.0048C152.287 54.2331 152.12 54.7049 152.009 55.4203H151.128V44.8044H152.009C152.422 47.0265 152.977 48.6931 153.675 49.8041C154.374 50.9 155.437 51.8132 156.865 52.5437C158.309 53.2743 159.888 53.6395 161.602 53.6395C163.586 53.6395 165.149 53.1373 166.292 52.1328C167.451 51.1283 168.03 49.9411 168.03 48.5713C168.03 47.8103 167.808 47.0417 167.363 46.2655C166.935 45.4893 166.26 44.7664 165.34 44.0967C164.721 43.6401 163.031 42.6736 160.269 41.1973C157.508 39.7058 155.54 38.5186 154.366 37.6359C153.207 36.7531 152.326 35.7791 151.723 34.7137C151.12 33.6483 150.819 32.4764 150.819 31.1979C150.819 28.9758 151.707 27.0657 153.485 25.4676C155.262 23.8543 157.524 23.0477 160.269 23.0477C161.983 23.0477 163.8 23.451 165.721 24.2576C166.609 24.6381 167.236 24.8284 167.601 24.8284C168.014 24.8284 168.347 24.7142 168.601 24.4859C168.871 24.2424 169.085 23.763 169.244 23.0477H170.125Z" fill="#D34247"/>
<path d="M197.215 44.3478H184.717L182.527 49.2334C181.988 50.4358 181.718 51.3337 181.718 51.9273C181.718 52.3991 181.948 52.8177 182.408 53.1829C182.884 53.533 183.9 53.7613 185.455 53.8678V54.7125H175.29V53.8678C176.639 53.6395 177.512 53.3427 177.909 52.9775C178.718 52.2469 179.615 50.763 180.599 48.5257L191.954 23.0477H192.787L204.023 48.7996C204.928 50.8695 205.745 52.2165 206.475 52.8405C207.221 53.4493 208.253 53.7917 209.57 53.8678V54.7125H196.834V53.8678C198.12 53.807 198.985 53.6015 199.429 53.2514C199.889 52.9014 200.119 52.4752 200.119 51.973C200.119 51.3033 199.802 50.2455 199.167 48.7996L197.215 44.3478ZM196.549 42.6584L191.073 30.1477L185.455 42.6584H196.549Z" fill="#D34247"/>
<path d="M123.693 80.8483V81.2276H116.996V80.8483H117.549C118.195 80.8483 118.663 80.6808 118.955 80.3459C119.14 80.1272 119.232 79.6009 119.232 78.767V69.7856C119.232 69.0816 119.182 68.6168 119.082 68.3912C119.005 68.2203 118.848 68.0734 118.61 67.9503C118.271 67.7863 117.918 67.7043 117.549 67.7043H116.996V67.3249H123.693V67.7043H123.128C122.49 67.7043 122.025 67.8717 121.733 68.2067C121.541 68.4254 121.445 68.9517 121.445 69.7856V78.767C121.445 79.471 121.495 79.9358 121.595 80.1614C121.672 80.3322 121.833 80.4792 122.079 80.6022C122.41 80.7663 122.759 80.8483 123.128 80.8483H123.693Z" fill="#D34247"/>
<path d="M133.929 81.2276L127.889 69.5293V78.8183C127.889 79.6726 127.993 80.2058 128.2 80.4177C128.484 80.7048 128.934 80.8483 129.549 80.8483H130.102V81.2276H124.661V80.8483H125.215C125.875 80.8483 126.344 80.6706 126.621 80.3152C126.79 80.0964 126.874 79.5975 126.874 78.8183V69.7343C126.874 69.1192 126.798 68.6749 126.644 68.4015C126.536 68.2032 126.336 68.0392 126.044 67.9093C125.76 67.7726 125.299 67.7043 124.661 67.7043V67.3249H129.088L134.759 78.2031L140.338 67.3249H144.764V67.7043H144.222C143.554 67.7043 143.081 67.882 142.805 68.2374C142.636 68.4561 142.551 68.9551 142.551 69.7343V78.8183C142.551 79.6726 142.659 80.2058 142.874 80.4177C143.158 80.7048 143.608 80.8483 144.222 80.8483H144.764V81.2276H138.125V80.8483H138.678C139.347 80.8483 139.815 80.6706 140.084 80.3152C140.253 80.0964 140.338 79.5975 140.338 78.8183V69.5293L134.309 81.2276H133.929Z" fill="#D34247"/>
<path d="M153.905 67.0071C155.934 67.0071 157.69 67.694 159.173 69.0679C160.664 70.4349 161.409 72.1437 161.409 74.1943C161.409 76.3063 160.66 78.0595 159.161 79.4539C157.663 80.8483 155.849 81.5455 153.721 81.5455C151.569 81.5455 149.759 80.8654 148.291 79.5052C146.831 78.145 146.101 76.3849 146.101 74.225C146.101 72.0173 146.947 70.2162 148.637 68.8218C150.105 67.612 151.861 67.0071 153.905 67.0071ZM153.686 67.7555C152.288 67.7555 151.166 68.2169 150.32 69.1397C149.267 70.288 148.741 71.9694 148.741 74.184C148.741 76.4533 149.287 78.1997 150.378 79.4232C151.215 80.3527 152.322 80.8175 153.698 80.8175C155.165 80.8175 156.376 80.3083 157.329 79.2899C158.289 78.2714 158.769 76.6652 158.769 74.4711C158.769 72.0924 158.243 70.3187 157.19 69.1499C156.345 68.2203 155.177 67.7555 153.686 67.7555ZM156.303 63.3714L152.902 66.3407H152.51L153.721 63.3714H156.303Z" fill="#D34247"/>
<path d="M179.092 67.3249V67.7043C178.538 67.7931 178.119 67.9503 177.835 68.1759C177.428 68.5108 177.067 69.0235 176.752 69.7138L171.299 81.5455H170.873L165.017 69.56C164.717 68.9449 164.506 68.5689 164.383 68.4322C164.191 68.2203 163.953 68.0563 163.668 67.9401C163.392 67.8171 163.015 67.7384 162.539 67.7043V67.3249H168.925V67.7043C168.202 67.7658 167.734 67.8752 167.518 68.0324C167.303 68.1896 167.196 68.3912 167.196 68.6373C167.196 68.979 167.372 69.5122 167.726 70.2367L171.703 78.3876L175.391 70.3392C175.753 69.5463 175.933 68.9961 175.933 68.6885C175.933 68.4903 175.822 68.3023 175.599 68.1246C175.376 67.9401 174.999 67.8102 174.469 67.735C174.431 67.7282 174.365 67.7179 174.273 67.7043V67.3249H179.092Z" fill="#D34247"/>
<path d="M184.325 68.0836V73.5791H187.76C188.651 73.5791 189.247 73.4595 189.546 73.2203C189.946 72.9058 190.169 72.3522 190.215 71.5593H190.642V76.3986H190.215C190.107 75.7219 190 75.2879 189.892 75.0965C189.754 74.8573 189.527 74.6693 189.212 74.5326C188.897 74.3959 188.413 74.3275 187.76 74.3275H184.325V78.9105C184.325 79.5257 184.356 79.9016 184.417 80.0383C184.478 80.1682 184.586 80.2741 184.74 80.3562C184.893 80.4314 185.185 80.4689 185.616 80.4689H188.267C189.151 80.4689 189.792 80.4143 190.192 80.3049C190.592 80.1955 190.976 79.9802 191.345 79.659C191.821 79.2352 192.309 78.5961 192.809 77.7417H193.27L191.921 81.2276H179.875V80.8483H180.429C180.798 80.8483 181.147 80.7697 181.478 80.6125C181.724 80.5031 181.889 80.3391 181.973 80.1204C182.065 79.9016 182.112 79.4539 182.112 78.7772V69.7446C182.112 68.8628 182.012 68.3194 181.812 68.1144C181.535 67.841 181.074 67.7043 180.429 67.7043H179.875V67.3249H191.921L192.094 70.37H191.644C191.483 69.6386 191.302 69.1362 191.103 68.8628C190.911 68.5894 190.622 68.381 190.238 68.2374C189.931 68.1349 189.389 68.0836 188.613 68.0836H184.325Z" fill="#D34247"/>
<path d="M201.108 80.8483V81.2276H194.411V80.8483H194.964C195.61 80.8483 196.078 80.6808 196.37 80.3459C196.555 80.1272 196.647 79.6009 196.647 78.767V69.7856C196.647 69.0816 196.597 68.6168 196.497 68.3912C196.42 68.2203 196.263 68.0734 196.025 67.9503C195.687 67.7863 195.333 67.7043 194.964 67.7043H194.411V67.3249H201.108V67.7043H200.543C199.905 67.7043 199.44 67.8717 199.148 68.2067C198.956 68.4254 198.86 68.9517 198.86 69.7856V78.767C198.86 79.471 198.91 79.9358 199.01 80.1614C199.087 80.3322 199.248 80.4792 199.494 80.6022C199.825 80.7663 200.174 80.8483 200.543 80.8483H201.108Z" fill="#D34247"/>
<path d="M212.508 67.0071V71.8156H212.082C211.943 70.8929 211.694 70.1581 211.332 69.6113C210.979 69.0645 210.472 68.6304 209.811 68.3092C209.15 67.9879 208.466 67.8273 207.759 67.8273C206.96 67.8273 206.299 68.046 205.776 68.4835C205.254 68.9141 204.993 69.4062 204.993 69.9599C204.993 70.3837 205.158 70.7698 205.488 71.1184C205.965 71.6311 207.098 72.3146 208.889 73.169C210.349 73.8662 211.344 74.4027 211.874 74.7787C212.412 75.1478 212.823 75.5852 213.108 76.091C213.4 76.5968 213.546 77.1265 213.546 77.6802C213.546 78.7328 213.085 79.6419 212.162 80.4074C211.248 81.1661 210.068 81.5455 208.624 81.5455C208.17 81.5455 207.744 81.5147 207.344 81.4532C207.106 81.419 206.61 81.296 205.857 81.0841C205.112 80.8654 204.639 80.756 204.439 80.756C204.247 80.756 204.094 80.8073 203.978 80.9098C203.871 81.0123 203.79 81.2242 203.736 81.5455H203.31V76.778H203.736C203.936 77.7759 204.205 78.5243 204.543 79.0233C204.881 79.5154 205.396 79.9255 206.088 80.2536C206.787 80.5817 207.552 80.7458 208.382 80.7458C209.342 80.7458 210.099 80.5202 210.652 80.0691C211.213 79.618 211.494 79.0848 211.494 78.4697C211.494 78.1279 211.386 77.7827 211.171 77.4341C210.964 77.0855 210.637 76.7609 210.191 76.4601C209.892 76.2551 209.073 75.821 207.736 75.158C206.399 74.4882 205.446 73.955 204.877 73.5586C204.316 73.1622 203.89 72.7247 203.598 72.2462C203.306 71.7678 203.16 71.2415 203.16 70.6673C203.16 69.6694 203.59 68.8116 204.451 68.0939C205.312 67.3693 206.407 67.0071 207.736 67.0071C208.566 67.0071 209.446 67.1882 210.376 67.5505C210.806 67.7214 211.11 67.8068 211.286 67.8068C211.486 67.8068 211.648 67.7555 211.77 67.653C211.901 67.5436 212.005 67.3283 212.082 67.0071H212.508Z" fill="#D34247"/>
<path fill-rule="evenodd" clip-rule="evenodd" d="M144.804 0L197.359 16.2139V6.29342H213.262V57.976H81.7834V56.2722H211.558V7.99724H199.063V18.5226L144.846 1.79598L82.0723 24.4171L81.4946 22.8141L144.804 0Z" fill="#D34247"/>
<path fill-rule="evenodd" clip-rule="evenodd" d="M213.262 61.9516H81.7834V60.2478H213.262V61.9516Z" fill="#D34247"/>
</svg>
