<svg width="214" height="64" viewBox="0 0 214 64" fill="none" xmlns="http://www.w3.org/2000/svg">
<path fill-rule="evenodd" clip-rule="evenodd" d="M78.9437 16.2324H0V63.9394H78.9437V16.2324ZM77.2399 17.9362H1.70382V62.2356H77.2399V17.9362Z" fill="#282828"/>
<path fill-rule="evenodd" clip-rule="evenodd" d="M75.536 19.6401H3.40759V60.5318H75.536V19.6401ZM6.81523 54.5835V55.4203H22.6471C29.5268 55.4203 34.6473 53.822 38.0088 50.6255C41.0045 47.7607 42.5023 44.1947 42.5023 39.9276C42.5023 36.7461 41.6576 33.9416 39.9682 31.514C38.2962 29.0865 36.0755 27.3525 33.3062 26.3121C30.5544 25.2717 26.5311 24.7515 21.2364 24.7515H6.81523V25.5884H8.14762C9.48872 25.5884 10.4989 25.9201 11.1781 26.5835C11.6658 27.066 11.9097 28.2647 11.9097 30.1796V49.9922C11.9097 51.7262 11.7181 52.842 11.3349 53.3395C10.7079 54.1688 9.64547 54.5835 8.14762 54.5835H6.81523ZM22.4904 53.8371C20.9925 53.8371 19.1376 53.626 16.9257 53.2038V27.1263C18.9286 26.6891 20.7139 26.4704 22.2814 26.4704C26.4614 26.4704 29.8838 27.6918 32.5486 30.1344C35.2134 32.577 36.5458 35.9168 36.5458 40.1538C36.5458 44.3605 35.2134 47.6928 32.5486 50.1505C29.8838 52.6082 26.5311 53.8371 22.4904 53.8371ZM55.5127 38.4801V26.4252H63.3241C65.1703 26.4252 66.5288 26.576 67.3997 26.8775C68.2879 27.1791 69.0282 27.6691 69.6203 28.3477C70.2299 29.0111 70.7611 30.059 71.214 31.4914H72.1284L71.7887 24.7515H45.4283V25.5884H46.6824C47.5358 25.5884 48.337 25.7693 49.0859 26.1312C49.6258 26.4026 49.9829 26.7268 50.157 27.1037C50.3834 27.6013 50.4966 28.6266 50.4966 30.1796V49.9922C50.4966 51.8317 50.2876 52.9927 49.8696 53.4752C49.2078 54.2141 48.1454 54.5835 46.6824 54.5835H45.4283V55.4203H60.6332V54.5835H59.3531C58.5171 54.5835 57.7159 54.4025 56.9496 54.0407C56.3922 53.7693 56.0265 53.4451 55.8523 53.0681C55.6259 52.5705 55.5127 51.5452 55.5127 49.9922V40.3573H61.9656C63.15 40.3573 64.0382 40.5006 64.6304 40.787C65.24 41.0585 65.7102 41.4731 66.0412 42.031C66.3895 42.5889 66.5724 43.4634 66.5898 44.6546H67.5564V34.2733H66.5898C66.3634 35.947 65.9018 37.0703 65.2052 37.6433C64.5259 38.2012 63.4461 38.4801 61.9656 38.4801H55.5127Z" fill="#282828"/>
<path d="M109.374 23.0477L110.112 33.5722H109.374C108.39 30.4217 106.985 28.1539 105.16 26.7689C103.335 25.3839 101.145 24.6914 98.59 24.6914C96.4475 24.6914 94.5114 25.2165 92.7815 26.2667C91.0517 27.3016 89.6868 28.9606 88.687 31.2435C87.7031 33.5265 87.2111 36.365 87.2111 39.759C87.2111 42.5595 87.6793 44.9871 88.6156 47.0417C89.552 49.0964 90.9565 50.6717 92.8291 51.7675C94.7177 52.8633 96.8681 53.4112 99.2804 53.4112C101.375 53.4112 103.224 52.9851 104.827 52.1328C106.43 51.2652 108.191 49.553 110.112 46.9961L110.85 47.4527C109.231 50.2075 107.342 52.2241 105.184 53.5026C103.026 54.781 100.463 55.4203 97.495 55.4203C92.1467 55.4203 88.0046 53.5178 85.0686 49.7128C82.8785 46.8819 81.7835 43.5488 81.7835 39.7134C81.7835 36.6238 82.5056 33.7853 83.9498 31.1979C85.394 28.6105 87.3777 26.6091 89.9011 25.1937C92.4403 23.763 95.2097 23.0477 98.2091 23.0477C100.542 23.0477 102.843 23.5956 105.113 24.6914C105.779 25.0262 106.255 25.1937 106.541 25.1937C106.969 25.1937 107.342 25.0491 107.66 24.7599C108.072 24.349 108.366 23.7782 108.541 23.0477H109.374Z" fill="#D34247"/>
<path d="M134.845 44.3478H122.348L120.158 49.2334C119.618 50.4358 119.348 51.3337 119.348 51.9273C119.348 52.3991 119.578 52.8177 120.039 53.1829C120.515 53.533 121.53 53.7613 123.086 53.8678V54.7125H112.921V53.8678C114.27 53.6395 115.143 53.3427 115.539 52.9775C116.349 52.2469 117.245 50.763 118.229 48.5257L129.584 23.0477H130.418L141.654 48.7996C142.558 50.8695 143.376 52.2165 144.106 52.8405C144.852 53.4493 145.883 53.7917 147.2 53.8678V54.7125H134.465V53.8678C135.75 53.807 136.615 53.6015 137.059 53.2514C137.52 52.9014 137.75 52.4752 137.75 51.973C137.75 51.3033 137.432 50.2455 136.797 48.7996L134.845 44.3478ZM134.179 42.6584L128.704 30.1477L123.086 42.6584H134.179Z" fill="#D34247"/>
<path d="M170.125 23.0477V33.7548H169.244C168.958 31.7001 168.443 30.064 167.697 28.8464C166.967 27.6288 165.919 26.6624 164.554 25.947C163.19 25.2317 161.777 24.874 160.317 24.874C158.667 24.874 157.302 25.3611 156.222 26.3352C155.143 27.294 154.604 28.3898 154.604 29.6226C154.604 30.5663 154.945 31.4262 155.627 32.2024C156.611 33.3439 158.952 34.8659 162.65 36.7683C165.665 38.3208 167.72 39.5155 168.815 40.3526C169.926 41.1745 170.775 42.1486 171.363 43.2748C171.966 44.4011 172.267 45.5806 172.267 46.8134C172.267 49.1573 171.315 51.1815 169.411 52.8862C167.522 54.5756 165.086 55.4203 162.102 55.4203C161.166 55.4203 160.285 55.3518 159.46 55.2148C158.968 55.1387 157.944 54.8647 156.389 54.3929C154.85 53.9059 153.874 53.6624 153.461 53.6624C153.064 53.6624 152.747 53.7765 152.509 54.0048C152.287 54.2331 152.12 54.7049 152.009 55.4203H151.128V44.8044H152.009C152.422 47.0265 152.977 48.6931 153.675 49.8041C154.374 50.9 155.437 51.8132 156.865 52.5437C158.309 53.2743 159.889 53.6395 161.602 53.6395C163.586 53.6395 165.149 53.1373 166.292 52.1328C167.451 51.1283 168.03 49.9411 168.03 48.5713C168.03 47.8103 167.808 47.0417 167.363 46.2655C166.935 45.4893 166.26 44.7664 165.34 44.0967C164.721 43.6401 163.031 42.6736 160.269 41.1973C157.508 39.7058 155.54 38.5186 154.366 37.6359C153.207 36.7531 152.326 35.7791 151.723 34.7137C151.12 33.6483 150.819 32.4764 150.819 31.1979C150.819 28.9758 151.707 27.0657 153.485 25.4676C155.262 23.8543 157.524 23.0477 160.269 23.0477C161.983 23.0477 163.801 23.451 165.721 24.2576C166.61 24.6381 167.236 24.8284 167.601 24.8284C168.014 24.8284 168.347 24.7142 168.601 24.4859C168.871 24.2424 169.085 23.763 169.244 23.0477H170.125Z" fill="#D34247"/>
<path d="M197.215 44.3478H184.717L182.527 49.2334C181.988 50.4358 181.718 51.3337 181.718 51.9273C181.718 52.3991 181.948 52.8177 182.408 53.1829C182.884 53.533 183.9 53.7613 185.455 53.8678V54.7125H175.29V53.8678C176.639 53.6395 177.512 53.3427 177.909 52.9775C178.718 52.2469 179.615 50.763 180.599 48.5257L191.954 23.0477H192.787L204.023 48.7996C204.928 50.8695 205.745 52.2165 206.475 52.8405C207.221 53.4493 208.253 53.7917 209.57 53.8678V54.7125H196.834V53.8678C198.12 53.807 198.985 53.6015 199.429 53.2514C199.889 52.9014 200.119 52.4752 200.119 51.973C200.119 51.3033 199.802 50.2455 199.167 48.7996L197.215 44.3478ZM196.549 42.6584L191.073 30.1477L185.455 42.6584H196.549Z" fill="#D34247"/>
<path fill-rule="evenodd" clip-rule="evenodd" d="M144.804 0L197.359 16.2139V6.29342H213.262V57.976H81.7834V56.2722H211.558V7.99724H199.063V18.5226L144.846 1.79598L82.0723 24.4171L81.4946 22.8141L144.804 0Z" fill="#D34247"/>
<path fill-rule="evenodd" clip-rule="evenodd" d="M213.262 61.9516H81.7835V60.2478H213.262V61.9516Z" fill="#D34247"/>
</svg>
