<svg width="65" height="64" viewBox="0 0 65 64" fill="none" xmlns="http://www.w3.org/2000/svg">
<g clip-path="url(#clip0_26_105)">
<path fill-rule="evenodd" clip-rule="evenodd" d="M4.98399 36.9697C3.20937 36.9697 1.76074 38.3127 1.76074 39.9497V56.7635C1.76074 58.4006 3.20949 59.74 4.98399 59.74H8.43037C10.205 59.74 11.6536 58.4006 11.6536 56.7635V54.7897V41.92V39.9499C11.6536 38.3127 10.2049 36.9699 8.43037 36.9699H4.98399V36.9697Z" fill="#D0414A"/>
<path fill-rule="evenodd" clip-rule="evenodd" d="M38.1662 38.7239H18.3271C18.0437 38.7239 17.7603 38.738 17.4806 38.7664C15.0932 38.9968 12.9998 40.1909 11.6538 41.9201V54.79L21.4193 59.1698C23.7358 60.0201 27.1681 60.0662 35.3998 60.1087C42.0447 60.1159 42.9126 60.1159 44.1736 60.1159C47.2516 60.1159 48.4594 59.8289 49.9082 58.3973L62.0787 47.1538C62.8508 46.4415 63.2404 45.499 63.2404 44.5564C63.2404 43.6138 62.8508 42.6713 62.0787 41.9555C60.8532 40.8216 59.0077 40.5877 57.5236 41.2467C57.1339 41.4204 56.7691 41.6578 56.4468 41.9555L47.9211 49.8291C47.2162 50.4811 45.7711 50.6654 44.1877 50.6619C40.2808 50.6513 33.9936 50.6406 30.0867 50.6335C28.4183 50.6335 27.0547 49.3756 27.0547 47.8341C27.0547 46.2926 28.4184 45.0312 30.0867 45.0312H38.1662C40.0471 45.0312 41.5807 43.6139 41.5807 41.8775C41.5807 41.3424 41.4354 40.8357 41.1769 40.3927C40.5996 39.4006 39.4661 38.7239 38.1662 38.7239Z" fill="#ECD8CA"/>
<path fill-rule="evenodd" clip-rule="evenodd" d="M26.9589 18.9194C25.5138 21.6124 23.6401 23.9405 21.3342 25.3154C20.4133 25.8681 20.1653 25.8681 19.2408 25.3154C18.6563 24.9681 18.1003 24.5571 17.5724 24.0929C16.7223 26.421 16.2583 28.9368 16.2583 31.559C16.2583 34.0855 16.6904 36.5093 17.4803 38.7664C17.7602 38.738 18.0436 38.7239 18.3268 38.7239H38.1659C39.4659 38.7239 40.5993 39.4006 41.1767 40.3929C41.4353 40.8358 41.5804 41.3425 41.5804 41.8776C41.5804 43.6139 40.0467 45.0314 38.1659 45.0314H30.0864C28.418 45.0314 27.0544 46.2929 27.0544 47.8343C27.0544 49.3756 28.4182 50.6336 30.0864 50.6336C33.9933 50.6408 40.2805 50.6514 44.1874 50.662C45.7707 50.6655 47.2159 50.4813 47.9208 49.8293L56.4465 41.9556C56.7689 41.658 57.1337 41.4205 57.5233 41.2469C58.9756 38.3306 59.7938 35.0388 59.7938 31.559C59.7938 19.5325 50.0495 9.78076 38.0278 9.78076C34.8647 9.78076 31.8611 10.4575 29.1478 11.6694C28.9921 14.0613 28.2306 16.5488 26.9589 18.9194Z" fill="#FFCD69"/>
<path fill-rule="evenodd" clip-rule="evenodd" d="M20.2894 3.88428L12.1144 8.2959C11.0482 8.8699 10.7577 9.01165 10.7471 10.2979C10.7224 13.2 11.5689 16.2758 13.1309 19.1885C14.2891 21.3465 15.7024 23.2848 17.3707 24.7447C17.941 25.2408 18.5396 25.6802 19.1666 26.0558C20.1549 26.6475 20.4205 26.6475 21.4122 26.0558C23.8846 24.5782 25.893 22.0835 27.4444 19.1885C28.8081 16.6479 29.6299 13.9797 29.7962 11.4107C29.821 11.0385 29.8316 10.6665 29.8281 10.298C29.8175 9.01178 29.5306 8.87003 28.4644 8.29603L20.2894 3.88428Z" fill="#88DF8E"/>
<path d="M62.9345 41.03C62.0069 40.172 60.8127 39.7084 59.5964 39.6365C60.5634 37.0652 61.0545 34.3581 61.0545 31.5589C61.0545 26.6132 59.5136 21.9011 56.5984 17.9321C56.1862 17.3709 55.3971 17.2501 54.8361 17.6624C54.275 18.0746 54.1543 18.8635 54.5664 19.4246C57.1616 22.9579 58.5332 27.1539 58.5332 31.5589C58.5332 34.6289 57.8719 37.5736 56.5704 40.3195C56.2216 40.515 55.8923 40.751 55.5913 41.0294L47.0648 48.9036C46.9381 49.0207 46.3606 49.4011 44.2313 49.4011C44.2179 49.4011 44.2044 49.4011 44.1909 49.4011C40.8436 49.392 35.7495 49.383 31.9014 49.376L30.0864 49.3729C29.1096 49.3729 28.315 48.6825 28.315 47.8341C28.315 46.9981 29.1262 46.2917 30.0864 46.2917H38.1659C40.7437 46.2917 42.841 44.3116 42.841 41.8776C42.841 41.6507 42.8226 41.4279 42.7875 41.2101C44.7962 40.3072 46.1457 38.3014 46.1457 36.006C46.1457 32.8589 43.602 30.2984 40.4753 30.2984H35.612C33.8559 30.2984 32.4274 28.8674 32.4274 27.1082C32.4274 25.3512 33.856 23.9217 35.612 23.9217H38.014H38.0171H44.8851C45.5814 23.9217 46.1457 23.3574 46.1457 22.6611C46.1457 21.965 45.5814 21.4006 44.8851 21.4006H39.2809L39.2884 18.3661C39.2901 17.6697 38.7271 17.1041 38.0309 17.1024C38.0299 17.1024 38.0287 17.1024 38.0277 17.1024C37.333 17.1024 36.769 17.6647 36.7671 18.3597L36.7596 21.4006H35.6121C32.4659 21.4006 29.9062 23.961 29.9062 27.1082C29.9062 30.2575 32.466 32.8195 35.6121 32.8195H40.4754C42.1825 32.8195 43.6246 34.2787 43.6246 36.006C43.6246 37.2979 42.815 38.4565 41.6567 38.9455C40.7999 38.037 39.5528 37.4632 38.166 37.4632H18.3829C17.8096 35.5512 17.519 33.5696 17.519 31.559C17.519 29.9595 17.7019 28.3827 18.0621 26.851C18.2131 26.9501 18.3653 27.0456 18.5186 27.1374C19.2125 27.553 19.7496 27.7609 20.2875 27.7609C20.825 27.7609 21.363 27.5532 22.0589 27.138C24.5505 25.6489 26.7361 23.1749 28.5553 19.7845C29.8805 17.3131 30.7028 14.757 30.9813 12.2881C33.2336 11.4614 35.6002 11.0414 38.028 11.0414C40.9255 11.0414 43.724 11.6331 46.3457 12.8C46.5124 12.8741 46.6864 12.9092 46.8576 12.9092C47.3404 12.9092 47.801 12.6304 48.01 12.1609C48.293 11.5249 48.007 10.7797 47.3709 10.4966C44.4244 9.18524 41.2809 8.52037 38.0279 8.52037C35.6345 8.52037 33.2934 8.88437 31.0445 9.60174C30.8666 8.23187 30.1589 7.77674 29.0928 7.20299L20.8879 2.77524C20.5142 2.57362 20.0641 2.57362 19.6905 2.77524L11.481 7.20512C10.2545 7.86524 9.50212 8.36724 9.48625 10.2872C9.46 13.3609 10.3361 16.645 12.0197 19.7846C13.1739 21.9356 14.4771 23.7166 15.9131 25.1131C15.3059 27.194 14.9976 29.3582 14.9976 31.5589C14.9976 33.6729 15.2836 35.7589 15.849 37.779C14.7684 38.0585 13.7451 38.5176 12.8296 39.1316C12.4253 37.1835 10.6068 35.7091 8.43025 35.7091H4.98387C2.5115 35.7091 0.5 37.6114 0.5 39.9497V56.7635C0.5 59.0999 2.5115 61.0006 4.98387 61.0006H8.43025C10.9026 61.0006 12.9141 59.0999 12.9141 56.7635V56.7367L20.9031 60.3197C20.9299 60.3317 20.9571 60.3427 20.9846 60.3527C23.4602 61.2617 26.6203 61.3236 35.3983 61.369C42.0441 61.3761 42.9121 61.3761 44.1732 61.3761C47.347 61.3761 48.97 61.0885 50.7785 59.3089C54.541 55.8307 58.3038 52.3556 62.0691 48.878L62.9331 48.08C63.9435 47.148 64.4999 45.8957 64.4999 44.5544C64.5 43.2131 63.9436 41.9609 62.9345 41.03ZM10.393 56.7635C10.393 57.7097 9.51263 58.4795 8.43038 58.4795H4.98387C3.90162 58.4795 3.02125 57.7097 3.02125 56.7635V39.9497C3.02125 39.0176 3.92 38.2302 4.98387 38.2302H8.43025C9.49413 38.2302 10.3929 39.0177 10.3929 39.9497L10.393 56.7635ZM14.2416 18.5927C12.7574 15.8251 11.9847 12.9605 12.0075 10.3082C12.0101 9.98649 12.034 9.84424 12.047 9.78999C12.1479 9.70937 12.4271 9.55899 12.676 9.42499L20.2892 5.31674L27.8668 9.40587L27.8979 9.42262C28.147 9.55674 28.4266 9.70724 28.528 9.78824C28.541 9.84287 28.5648 9.98612 28.5674 10.3102C28.5933 12.955 27.8206 15.819 26.3333 18.5925C24.7331 21.5749 22.8598 23.7217 20.766 24.9732C20.4869 25.1399 20.3517 25.2042 20.2881 25.229C20.2249 25.2041 20.0906 25.1399 19.8141 24.9744C19.8138 24.9741 19.8135 24.9739 19.8131 24.9737C17.7446 23.7375 15.818 21.5309 14.2416 18.5927ZM61.2233 46.2276L60.3587 47.026C56.5881 50.5086 52.8203 53.9884 49.0524 57.4714C49.042 57.4809 49.0319 57.4905 49.022 57.5004C47.9599 58.5499 47.1948 58.855 44.1735 58.855C42.9126 58.855 42.045 58.855 35.4064 58.8479C27.3721 58.8062 23.9994 58.7589 21.8932 58.0004L12.9144 53.9734V42.375C14.246 40.8712 16.2382 39.9842 18.327 39.9842H38.1661C38.9921 39.9842 39.71 40.3956 40.0713 40.997C40.0781 41.0096 40.0846 41.0224 40.0919 41.0346C40.2365 41.2889 40.32 41.5745 40.32 41.8775C40.32 42.9214 39.3538 43.7705 38.1661 43.7705H30.0866C27.7196 43.7705 25.794 45.5934 25.794 47.834C25.794 50.0726 27.7198 51.8939 30.0844 51.8939L31.8971 51.8971C35.7444 51.904 40.8376 51.9131 44.1849 51.9221C44.2003 51.9222 44.2152 51.9222 44.2305 51.9222C46.4704 51.9221 47.916 51.5506 48.7762 50.7549L57.3027 42.8807C58.3651 41.8981 60.1602 41.898 61.224 42.8819C61.7109 43.3311 61.979 43.9251 61.979 44.5544C61.9788 45.1839 61.7106 45.7779 61.2233 46.2276Z" fill="black"/>
<path d="M51.711 15.8816C52.0336 15.8816 52.3562 15.7586 52.6023 15.5125C53.0947 15.0201 53.0947 14.222 52.6023 13.7296L52.5988 13.7261C52.1066 13.2341 51.3101 13.2356 50.8178 13.728C50.3254 14.2202 50.3273 15.0201 50.8196 15.5126C51.0657 15.7586 51.3883 15.8816 51.711 15.8816Z" fill="black"/>
<path d="M19.7365 18.1602C20.0648 18.1602 20.3926 18.0327 20.6393 17.7795L25.0882 13.2155C25.5741 12.7169 25.564 11.9188 25.0653 11.4329C24.5668 10.9469 23.7687 10.957 23.2827 11.4557L19.6963 15.135L18.4517 13.97C17.9435 13.4943 17.1458 13.5204 16.6698 14.029C16.1941 14.5373 16.2205 15.335 16.7287 15.8108L18.8752 17.82C19.1181 18.0473 19.4276 18.1602 19.7365 18.1602Z" fill="black"/>
</g>
<defs>
<clipPath id="clip0_26_105">
<rect width="64" height="64" fill="white" transform="translate(0.5)"/>
</clipPath>
</defs>
</svg>
