<svg width="65" height="64" viewBox="0 0 65 64" fill="none" xmlns="http://www.w3.org/2000/svg">
<g clip-path="url(#clip0_26_128)">
<path d="M32.2048 61.7048C0.995802 52.3275 6.58118 15.1112 6.58118 15.1112C7.96293 14.3815 9.34455 13.6709 10.7117 12.9837H10.7132C21.9777 7.32067 32.2049 3.24292 32.2049 3.24292C32.2049 3.24292 45.0649 8.37117 57.8284 15.1112C57.8284 15.1112 63.4138 52.3275 32.2048 61.7048Z" fill="#D0414A"/>
<path d="M32.2048 61.7048C0.995802 52.3275 6.58118 15.1111 6.58118 15.1111C7.96293 14.3815 9.34455 13.6709 10.7117 12.9836H10.7132C10.7132 12.9836 3.53505 47.6139 32.2048 61.7048Z" fill="#F3646D"/>
<path d="M32.2046 61.7048V3.24292C32.2046 3.24292 45.0647 8.37117 57.8282 15.1112C57.8282 15.1112 63.4136 52.3275 32.2046 61.7048Z" fill="#D0414A"/>
<path d="M32.2046 55.6976C7.40885 48.247 11.847 18.6791 11.847 18.6791C12.962 18.0901 14.0785 17.5172 15.1804 16.9634H15.1819C24.1124 12.4784 32.2046 9.25049 32.2046 9.25049C32.2046 9.25049 42.4215 13.3252 52.5622 18.6791C52.5622 18.6791 57.0004 48.247 32.2046 55.6976Z" fill="#FFDA2D"/>
<path d="M32.2046 55.6974C7.40885 48.2468 11.847 18.6789 11.847 18.6789C12.962 18.0899 14.0785 17.517 15.1804 16.9631H15.1819C15.1819 16.9631 10.7392 43.3896 32.2046 55.6974Z" fill="#FFE571"/>
<path d="M32.2046 55.6976V9.25049C32.2046 9.25049 42.4215 13.3252 52.5622 18.6791C52.5622 18.6791 57.0003 48.247 32.2046 55.6976Z" fill="#FFCE00"/>
<path d="M43.7665 28.4314L32.2045 39.9949L31.0207 41.1788C30.4023 41.7972 29.5643 42.1444 28.6895 42.1444C27.8148 42.1444 26.9767 41.7972 26.3584 41.1788L20.6427 35.4631C19.3548 34.1752 19.3548 32.0872 20.6427 30.8008C21.9305 29.5129 24.017 29.5129 25.3049 30.8008L28.6895 34.1854L32.2045 30.6704L39.1043 23.7693C40.3922 22.4828 42.4787 22.4828 43.7665 23.7693C45.0544 25.0572 45.0544 27.1451 43.7665 28.4314Z" fill="#88DF8E"/>
<path d="M43.7666 28.4313L32.2046 39.9948V30.6702L39.1043 23.7691C40.3922 22.4826 42.4787 22.4826 43.7666 23.7691C45.0545 25.0571 45.0545 27.1449 43.7666 28.4313Z" fill="#78C67E"/>
<path d="M58.1238 25.183C57.6088 25.1471 57.1583 25.5336 57.1207 26.05C56.2005 38.672 51.125 54.9021 32.2047 60.7252C19.7769 56.9007 11.8413 48.156 8.61429 34.7287C6.47879 25.8434 7.21666 17.7065 7.44891 15.7136C12.2829 13.1749 17.6552 10.5846 23.425 8.01036C23.8979 7.79936 24.1102 7.24498 23.8993 6.77223C23.6883 6.29936 23.1334 6.08736 22.6612 6.29798C16.6818 8.96573 11.1243 11.652 6.14291 14.2824C5.87941 14.4214 5.69766 14.6775 5.65354 14.9722C5.59541 15.3596 4.25929 24.5775 6.77754 35.1097C8.26441 41.3285 10.7967 46.6936 14.304 51.0562C18.6995 56.5236 24.6314 60.4085 31.9349 62.603C32.0229 62.6295 32.1138 62.6426 32.2047 62.6426C32.2955 62.6426 32.3864 62.6295 32.4744 62.603C41.6868 59.8349 48.661 54.4199 53.2034 46.5084C56.4762 40.8082 58.4233 33.971 58.9908 26.1862C59.0284 25.6697 58.6403 25.2207 58.1238 25.183Z" fill="black"/>
<path d="M58.2664 14.2823C45.6043 7.59632 32.6808 2.42382 32.5518 2.37232C32.3286 2.28345 32.0801 2.28345 31.8571 2.37232C31.8351 2.38107 29.6206 3.26557 26.1864 4.7497C25.7111 4.9552 25.4924 5.50695 25.6978 5.9822C25.9033 6.45732 26.4549 6.67657 26.9303 6.47082C29.5545 5.33682 31.458 4.5567 32.2043 4.2542C34.3149 5.11095 45.6816 9.79145 56.9609 15.7141C57.0763 16.6939 57.3156 19.1569 57.2743 22.4408C57.2676 22.9586 57.6821 23.3836 58.1998 23.3901C58.2038 23.3902 58.2078 23.3902 58.2119 23.3902C58.7241 23.3902 59.1425 22.9782 59.149 22.4646C59.2051 18.0234 58.7741 15.0948 58.7558 14.9723C58.7115 14.6774 58.5299 14.4213 58.2664 14.2823Z" fill="black"/>
<path d="M14.017 38.6868C13.5374 38.882 13.3067 39.4289 13.5019 39.9084C16.9307 48.3363 23.1325 53.9505 31.9349 56.5953C32.0229 56.6218 32.1137 56.6349 32.2046 56.6349C32.2955 56.6349 32.3864 56.6218 32.4744 56.5953C38.315 54.8404 43.0596 51.7325 46.5766 47.3578C49.3812 43.8694 51.4056 39.5813 52.5936 34.6126C54.6029 26.209 53.5361 18.8495 53.4897 18.5403C53.4455 18.2457 53.2639 17.9895 53.0004 17.8504C42.9316 12.5339 32.6545 8.42053 32.5519 8.3794C32.329 8.29053 32.0802 8.29053 31.8572 8.3794C31.7546 8.4204 21.4776 12.5338 11.4087 17.8504C11.1452 17.9894 10.9635 18.2455 10.9194 18.5403C10.8655 18.8988 9.63325 27.4249 12.3447 36.5959C12.4916 37.0925 13.013 37.376 13.5096 37.229C14.0061 37.0821 14.2895 36.5606 14.1427 36.0641C11.9002 28.4798 12.5055 21.1604 12.7161 19.281C21.5157 14.6673 30.3634 11.0105 32.2044 10.2615C34.0455 11.0105 42.8936 14.6675 51.6931 19.2813C51.8876 21.003 52.4164 27.2899 50.7697 34.1765C48.2351 44.777 41.9892 51.6864 32.2044 54.7173C24.1154 52.2105 18.4076 46.9915 15.2384 39.2018C15.0435 38.7224 14.4965 38.4919 14.017 38.6868Z" fill="black"/>
<path d="M28.6895 43.0812C29.8206 43.0812 30.884 42.6408 31.6835 41.8411L44.4296 29.0947C46.0803 27.4439 46.0803 24.7577 44.4296 23.1066C42.7785 21.4557 40.0925 21.4557 38.4414 23.1066L28.6895 32.8588L25.968 30.1373C24.3169 28.4864 21.6309 28.4863 19.9798 30.1374C18.329 31.7883 18.329 34.4746 19.9798 36.1256L25.6955 41.8411C26.4949 42.6408 27.5583 43.0812 28.6895 43.0812ZM21.3055 31.4632C21.7654 31.0032 22.3696 30.7732 22.9738 30.7732C23.5779 30.7732 24.1821 31.0032 24.6421 31.4632L28.0265 34.8476C28.3928 35.2134 28.9863 35.2137 29.3524 34.8476L39.7671 24.4326C40.6869 23.5124 42.1838 23.5127 43.1035 24.4324C44.0233 25.3523 44.0233 26.8492 43.1035 27.7689L30.3575 40.5153C29.9121 40.9608 29.3196 41.2062 28.6894 41.2062C28.0591 41.2062 27.4666 40.9608 27.0211 40.5152L21.3054 34.7997C20.3858 33.8798 20.3858 32.3829 21.3055 31.4632Z" fill="black"/>
<path d="M6.69147 56.5146H5.69409C5.17622 56.5146 4.75659 56.9343 4.75659 57.4521C4.75659 57.97 5.17622 58.3896 5.69409 58.3896H6.69147C7.20934 58.3896 7.62897 57.97 7.62897 57.4521C7.62897 56.9343 7.20934 56.5146 6.69147 56.5146Z" fill="#FFCD69"/>
<path d="M6.69147 52.6355H5.69409C5.17622 52.6355 4.75659 53.0551 4.75659 53.573C4.75659 54.0909 5.17622 54.5105 5.69409 54.5105H6.69147C7.20934 54.5105 7.62897 54.0909 7.62897 53.573C7.62897 53.0551 7.20934 52.6355 6.69147 52.6355Z" fill="#FFCD69"/>
<path d="M6.69147 48.7563H5.69409C5.17622 48.7563 4.75659 49.176 4.75659 49.6938C4.75659 50.2117 5.17622 50.6313 5.69409 50.6313H6.69147C7.20934 50.6313 7.62897 50.2117 7.62897 49.6938C7.62897 49.176 7.20934 48.7563 6.69147 48.7563Z" fill="#FFCD69"/>
<path d="M63.5625 8.46705H62.7131V7.61768C62.7131 7.0998 62.2935 6.68018 61.7756 6.68018C61.2578 6.68018 60.8381 7.0998 60.8381 7.61768V8.46705H59.9888C59.4709 8.46705 59.0513 8.88668 59.0513 9.40455C59.0513 9.92243 59.4709 10.3421 59.9888 10.3421H60.8381V11.1914C60.8381 11.7093 61.2578 12.1289 61.7756 12.1289C62.2935 12.1289 62.7131 11.7093 62.7131 11.1914V10.3421H63.5625C64.0804 10.3421 64.5 9.92243 64.5 9.40455C64.5 8.88668 64.0804 8.46705 63.5625 8.46705Z" fill="#FFCD69"/>
<path d="M5.01125 11.2803C5.52913 11.2803 5.94875 10.8607 5.94875 10.3428C5.94875 9.82491 5.52913 9.40528 5.01125 9.40528H4.16188V8.55591C4.16188 8.03803 3.74225 7.61841 3.22438 7.61841C2.7065 7.61841 2.28688 8.03803 2.28688 8.55591V9.40528H1.4375C0.919625 9.40528 0.5 9.82491 0.5 10.3428C0.5 10.8607 0.919625 11.2803 1.4375 11.2803H2.28688V12.1297C2.28688 12.6475 2.7065 13.0672 3.22438 13.0672C3.74225 13.0672 4.16188 12.6475 4.16188 12.1297V11.2803H5.01125Z" fill="#FFCD69"/>
<path d="M9.46973 5.0193H10.3191V5.86867C10.3191 6.38655 10.7387 6.80617 11.2566 6.80617C11.7745 6.80617 12.1941 6.38655 12.1941 5.86867V5.0193H13.0434C13.5612 5.0193 13.9809 4.59967 13.9809 4.0818C13.9809 3.56392 13.5612 3.1443 13.0434 3.1443H12.1941V2.29492C12.1941 1.77705 11.7745 1.35742 11.2566 1.35742C10.7387 1.35742 10.3191 1.77705 10.3191 2.29492V3.1443H9.46973C8.95185 3.1443 8.53223 3.56392 8.53223 4.0818C8.53223 4.59967 8.95185 5.0193 9.46973 5.0193Z" fill="#FFCD69"/>
</g>
<defs>
<clipPath id="clip0_26_128">
<rect width="64" height="64" fill="white" transform="translate(0.5)"/>
</clipPath>
</defs>
</svg>
