<svg width="64" height="64" viewBox="0 0 64 64" fill="none" xmlns="http://www.w3.org/2000/svg">
<path fill-rule="evenodd" clip-rule="evenodd" d="M12.0366 19.184C13.9125 19.0284 15.5587 18.0636 16.6253 16.6397C17.426 15.5712 17.9001 14.2441 17.9001 12.8062C17.9001 11.3684 17.426 10.0412 16.6253 8.97275C15.4581 7.4145 13.5968 6.40625 11.5001 6.40625C7.96547 6.40625 5.1001 9.27162 5.1001 12.8062C5.1001 16.1602 7.6801 18.9116 10.9636 19.1841C11.1413 19.1749 11.3202 19.1701 11.5001 19.1701C11.68 19.17 11.8588 19.1748 12.0366 19.184Z" fill="#D0414A"/>
<path fill-rule="evenodd" clip-rule="evenodd" d="M16.626 20.553C15.2616 19.7591 13.6999 19.2708 12.0366 19.1841C11.8597 19.1988 11.6807 19.2062 11.5001 19.2062C11.3195 19.2062 11.1405 19.1987 10.9636 19.1841C5.57275 19.4655 1.25 23.9625 1.25 29.4202V34.5453V37.108C1.25 38.5173 2.40313 39.6705 3.8125 39.6705H6.37525V55.0317C6.37525 56.4411 7.52837 57.5942 8.93775 57.5942H11.5001H14.0625C15.4719 57.5942 16.625 56.4411 16.625 55.0317V39.6705H19.1877C20.5971 39.6705 21.7502 38.5173 21.7502 37.108V34.5453V29.4202C21.7502 25.6465 19.6835 22.3321 16.626 20.553Z" fill="#D0414A"/>
<path fill-rule="evenodd" clip-rule="evenodd" d="M16.6252 16.6396C17.692 18.0636 19.3382 19.0283 21.2141 19.184C21.3917 19.1748 21.5706 19.17 21.7505 19.17C21.9304 19.17 22.1092 19.1748 22.287 19.184C24.1626 19.0284 25.8087 18.0639 26.8755 16.6402C27.6762 15.5716 28.1506 14.2444 28.1506 12.8062C28.1506 11.3681 27.6762 10.0409 26.8755 8.97225C25.7081 7.41437 23.8471 6.40625 21.7505 6.40625C19.6537 6.40625 17.7926 7.41462 16.6254 8.97275C17.4259 10.0412 17.9 11.3684 17.9 12.8062C17.9 14.244 17.4257 15.5711 16.6252 16.6396Z" fill="#FF9070"/>
<path fill-rule="evenodd" clip-rule="evenodd" d="M28.1506 12.8062C28.1506 14.2444 27.6762 15.5716 26.8755 16.6403C27.9422 18.0639 29.5882 19.0284 31.464 19.184C31.6416 19.1747 31.8205 19.17 32.0004 19.17C32.1802 19.17 32.3591 19.1747 32.5369 19.184C34.4125 19.0284 36.0585 18.0639 37.1252 16.6403C37.926 15.5716 38.4004 14.2442 38.4004 12.8062C38.4004 11.3681 37.9261 10.0409 37.1252 8.97225C35.9579 7.41437 34.0969 6.40625 32.0004 6.40625C29.9039 6.40625 28.0429 7.41437 26.8755 8.97225C27.6762 10.0409 28.1506 11.3681 28.1506 12.8062Z" fill="#FFC144"/>
<path fill-rule="evenodd" clip-rule="evenodd" d="M38.4002 12.8062C38.4002 14.2444 37.926 15.5716 37.1251 16.6403C38.1919 18.0639 39.838 19.0284 41.7136 19.184C41.8912 19.1747 42.0701 19.17 42.25 19.17C42.4299 19.17 42.6087 19.1747 42.7865 19.184C44.6621 19.0284 46.3081 18.0639 47.3749 16.6403C48.1756 15.5716 48.65 14.2442 48.65 12.8062C48.65 11.3681 48.1757 10.0409 47.3749 8.97225C46.2075 7.41437 44.3465 6.40625 42.2499 6.40625C40.1534 6.40625 38.2924 7.41437 37.125 8.97225C37.926 10.0409 38.4002 11.3681 38.4002 12.8062Z" fill="#88DF8E"/>
<path fill-rule="evenodd" clip-rule="evenodd" d="M48.6501 12.8061C48.6501 14.2443 48.1759 15.5715 47.375 16.6401C48.4418 18.0638 50.0879 19.0283 51.9635 19.1839C52.1411 19.1746 52.32 19.1699 52.4999 19.1699C52.6797 19.1699 52.8586 19.1746 53.0364 19.1839C56.3199 18.9114 58.8999 16.16 58.8999 12.806C58.8999 9.27138 56.0345 6.40601 52.4999 6.40601C50.4034 6.40601 48.5424 7.41413 47.375 8.97201C48.1759 10.0408 48.6501 11.368 48.6501 12.8061Z" fill="#00CCF2"/>
<path fill-rule="evenodd" clip-rule="evenodd" d="M51.9635 19.1841C50.3006 19.271 48.7398 19.7593 47.3756 20.5528C50.4334 22.3318 52.5002 25.6463 52.5002 29.4202V34.5453V37.108C52.5002 38.5173 51.3471 39.6705 49.9377 39.6705H47.375V55.0317C47.375 56.4411 48.5281 57.5942 49.9375 57.5942H52.4999H55.0622C56.4716 57.5942 57.6247 56.4411 57.6247 55.0317V39.6705H60.1875C61.5969 39.6705 62.75 38.5173 62.75 37.108V34.5453V29.4202C62.75 23.9625 58.4271 19.4656 53.0364 19.1841C52.8595 19.1988 52.6806 19.2062 52.4999 19.2062C52.3192 19.2062 52.1404 19.1987 51.9635 19.1841Z" fill="#00CCF2"/>
<path fill-rule="evenodd" clip-rule="evenodd" d="M41.7137 19.1841C40.0509 19.271 38.49 19.7593 37.1259 20.5528C40.1836 22.3318 42.2505 25.6463 42.2505 29.4202V34.5453V37.108C42.2505 38.5173 41.0974 39.6705 39.688 39.6705H37.1252V55.0317C37.1252 56.4411 38.2784 57.5942 39.6877 57.5942H42.2501H44.8124C46.2217 57.5942 47.3749 56.4411 47.3749 55.0317V39.6705H49.9376C51.347 39.6705 52.5001 38.5173 52.5001 37.108V34.5453V29.4202C52.5001 23.9625 48.1772 19.4656 42.7865 19.1841C42.6096 19.1988 42.4306 19.2062 42.25 19.2062C42.0694 19.2062 41.8905 19.1987 41.7137 19.1841Z" fill="#88DF8E"/>
<path fill-rule="evenodd" clip-rule="evenodd" d="M31.464 19.1841C29.8011 19.271 28.2402 19.7593 26.8761 20.5528C29.9339 22.3318 32.0007 25.6463 32.0007 29.4202V34.5453V37.108C32.0007 38.5173 30.8476 39.6705 29.4382 39.6705H26.8755V55.0317C26.8755 56.4411 28.0286 57.5942 29.438 57.5942H32.0004H34.5627C35.9721 57.5942 37.1252 56.4411 37.1252 55.0317V39.6705H39.688C41.0974 39.6705 42.2505 38.5173 42.2505 37.108V34.5453V29.4202C42.2505 23.9625 37.9276 19.4656 32.5369 19.1841C32.36 19.1988 32.181 19.2062 32.0004 19.2062C31.8197 19.2062 31.6409 19.1987 31.464 19.1841Z" fill="#FFC144"/>
<path fill-rule="evenodd" clip-rule="evenodd" d="M21.2142 19.1841C19.5514 19.271 17.9905 19.7593 16.6264 20.5528C19.6841 22.3318 21.751 25.6463 21.751 29.4202V34.5453V37.108C21.751 38.5173 20.5979 39.6705 19.1885 39.6705H16.6257V55.0317C16.6257 56.4411 17.7789 57.5942 19.1882 57.5942H21.7506H24.313C25.7224 57.5942 26.8755 56.4411 26.8755 55.0317V39.6705H29.4382C30.8476 39.6705 32.0007 38.5173 32.0007 37.108V34.5453V29.4202C32.0007 23.9625 27.6779 19.4656 22.2871 19.1841C22.1102 19.1988 21.9314 19.2062 21.7506 19.2062C21.57 19.2062 21.3911 19.1987 21.2142 19.1841Z" fill="#FF9070"/>
<path d="M57.1268 18.8929C58.9624 17.4941 60.1499 15.2866 60.1499 12.806C60.1499 8.58775 56.7181 5.15601 52.4999 5.15601C50.5684 5.15601 48.7645 5.86288 47.3717 7.12888C46.0147 5.9035 44.2182 5.15601 42.2502 5.15601C40.3187 5.15601 38.5147 5.86288 37.1219 7.12888C35.7649 5.9035 33.9684 5.15601 32.0003 5.15601C30.0688 5.15601 28.2649 5.86288 26.8722 7.12888C25.5152 5.9035 23.7187 5.15601 21.7506 5.15601C19.8188 5.15601 18.0148 5.863 16.622 7.12925C15.265 5.90363 13.4683 5.15601 11.5001 5.15601C7.28186 5.15601 3.85012 8.58775 3.85012 12.806C3.85012 15.2866 5.03774 17.4941 6.87336 18.8929C2.82974 20.677 0 24.724 0 29.42V37.1076C0 39.2097 1.71037 40.9201 3.81249 40.9201H5.12524V55.0313C5.12524 57.1334 6.83561 58.8438 8.93773 58.8438H14.0625C15.0482 58.8438 15.9478 58.4677 16.6253 57.8514C17.3028 58.4677 18.2025 58.8438 19.1882 58.8438H24.313C25.2986 58.8438 26.1979 58.4678 26.8754 57.8518C27.5529 58.4678 28.4523 58.8438 29.4379 58.8438H34.5627C35.5483 58.8438 36.4478 58.4678 37.1252 57.8518C37.8027 58.4678 38.7022 58.8438 39.6878 58.8438H44.8124C45.798 58.8438 46.6975 58.4678 47.375 57.8518C48.0524 58.4678 48.9519 58.8438 49.9375 58.8438H55.0623C57.1644 58.8438 58.8748 57.1334 58.8748 55.0313V40.9201H60.1875C62.2896 40.9201 64 39.2097 64 37.1076V29.42C64 24.724 61.1703 20.677 57.1268 18.8929ZM57.6499 12.806C57.6499 15.4772 55.6055 17.6794 52.9993 17.9314C52.8336 17.9242 52.6673 17.9199 52.4999 17.9199C52.3375 17.9199 52.1754 17.9246 52.0134 17.9315C50.8464 17.8235 49.771 17.3295 48.9339 16.5215C49.5484 15.4205 49.9 14.1537 49.9 12.8059C49.9 11.458 49.5483 10.1912 48.9339 9.09025C49.8863 8.17112 51.1468 7.65588 52.4999 7.65588C55.3396 7.656 57.6499 9.96625 57.6499 12.806ZM46.8769 18.8929C47.0474 18.763 47.2128 18.6266 47.3717 18.4831C47.5329 18.6297 47.6995 18.7691 47.8714 18.9004C47.7063 18.9734 47.5423 19.049 47.3805 19.1299C47.2149 19.047 47.047 18.9679 46.8769 18.8929ZM47.4 12.806C47.4 15.4772 45.3557 17.6794 42.7495 17.9314C42.5839 17.9242 42.4175 17.9199 42.2502 17.9199C42.0877 17.9199 41.9257 17.9246 41.7637 17.9315C40.5967 17.8235 39.5213 17.3295 38.6842 16.5216C39.2987 15.4206 39.6504 14.1539 39.6504 12.806C39.6504 11.4581 39.2987 10.1914 38.6842 9.09037C39.6365 8.17125 40.897 7.656 42.2503 7.656C45.0898 7.656 47.4 9.96625 47.4 12.806ZM36.6272 18.8929C36.7977 18.763 36.9631 18.6266 37.1219 18.4831C37.2832 18.6297 37.4498 18.7691 37.6217 18.9004C37.4566 18.9734 37.2926 19.049 37.1308 19.1299C36.9652 19.047 36.7972 18.968 36.6272 18.8929ZM37.1503 12.806C37.1503 15.4772 35.1059 17.6794 32.4997 17.9314C32.3341 17.9242 32.1677 17.9199 32.0003 17.9199C31.8379 17.9199 31.6758 17.9246 31.5138 17.9315C30.3468 17.8235 29.2714 17.3295 28.4343 16.5216C29.0488 15.4206 29.4006 14.1539 29.4006 12.806C29.4006 11.4581 29.0488 10.1914 28.4343 9.09037C29.3867 8.17125 30.6472 7.656 32.0003 7.656C34.8401 7.656 37.1503 9.96625 37.1503 12.806ZM26.3774 18.8929C26.5479 18.763 26.7133 18.6266 26.8722 18.4831C27.0334 18.6297 27.1999 18.7691 27.3719 18.9004C27.2068 18.9734 27.0428 19.049 26.8811 19.1299C26.7154 19.047 26.5474 18.968 26.3774 18.8929ZM26.9006 12.806C26.9006 15.4772 24.8562 17.6794 22.25 17.9314C22.0843 17.9242 21.918 17.9199 21.7506 17.9199C21.5882 17.9199 21.4261 17.9246 21.2641 17.9315C20.0968 17.8235 19.0212 17.3292 18.1841 16.521C18.7985 15.4201 19.1501 14.1536 19.1501 12.8059C19.1501 11.4581 18.7985 10.1916 18.1842 9.09075C19.1366 8.17125 20.3973 7.65588 21.7507 7.65588C24.5903 7.656 26.9006 9.96625 26.9006 12.806ZM16.1268 18.8929C16.2975 18.7629 16.463 18.6264 16.622 18.4827C16.7835 18.6295 16.9501 18.769 17.1221 18.9004C16.9568 18.9735 16.7927 19.0491 16.6308 19.13C16.4651 19.047 16.297 18.968 16.1268 18.8929ZM6.35011 12.806C6.35011 9.96625 8.66036 7.656 11.5001 7.656C14.3398 7.656 16.65 9.96625 16.65 12.806C16.65 15.4775 14.6051 17.6797 11.9985 17.9314C11.8331 17.9242 11.6671 17.9199 11.5001 17.9199C11.3331 17.9199 11.167 17.9242 11.0017 17.9314C8.39498 17.6799 6.35011 15.4776 6.35011 12.806ZM15.375 55.0313C15.375 55.755 14.7862 56.3438 14.0625 56.3438H12.7501V44.7953C12.7501 44.1051 12.1904 43.5453 11.5001 43.5453C10.8099 43.5453 10.2501 44.1051 10.2501 44.7953V56.3438H8.93773C8.21398 56.3438 7.62523 55.755 7.62523 55.0313V35.0454C7.62523 34.3552 7.06549 33.7954 6.37524 33.7954C5.68499 33.7954 5.12524 34.3552 5.12524 35.0454V38.4201H3.81249C3.08874 38.4201 2.5 37.8313 2.5 37.1076V29.42C2.5 24.6325 6.25786 20.7074 10.9786 20.4361C11.1511 20.4479 11.3246 20.4559 11.5001 20.4559C11.6756 20.4559 11.8491 20.4477 12.0216 20.4361C13.361 20.5131 14.6227 20.8838 15.7432 21.4855C15.882 21.6147 16.0466 21.7078 16.223 21.7628C18.7875 23.3505 20.5002 26.1885 20.5002 29.42V37.1076C20.5002 37.8313 19.9115 38.4201 19.1877 38.4201H17.875V29.42C17.875 28.7297 17.3152 28.17 16.625 28.17C15.9347 28.17 15.375 28.7297 15.375 29.42V55.0313ZM24.313 56.3438H23.0006V44.7953C23.0006 44.1051 22.4408 43.5453 21.7506 43.5453C21.0603 43.5453 20.5006 44.1051 20.5006 44.7953V56.3438H19.1882C18.4645 56.3438 17.8757 55.755 17.8757 55.0313C17.8757 55.0264 17.8751 55.0217 17.875 55.0168V40.9201H19.1877C21.2898 40.9201 23.0002 39.2097 23.0002 37.1076V29.42C23.0002 25.9998 21.499 22.9242 19.1213 20.8158C19.8023 20.6062 20.5077 20.4789 21.2216 20.4364C21.3968 20.4481 21.573 20.4559 21.7506 20.4559C21.9263 20.4559 22.1001 20.4477 22.2728 20.436C23.6115 20.513 24.8723 20.8836 25.9923 21.4846C26.1314 21.6145 26.2968 21.708 26.4739 21.763C29.0382 23.3506 30.7507 26.1885 30.7507 29.4197V37.1073C30.7507 37.8311 30.1619 38.4198 29.4382 38.4198H28.1254V29.4197C28.1254 28.7295 27.5657 28.1697 26.8754 28.1697C26.1852 28.1697 25.6254 28.7295 25.6254 29.4197V55.031C25.6254 55.755 25.0367 56.3438 24.313 56.3438ZM34.5627 56.3438H33.2503V44.7953C33.2503 44.1051 32.6906 43.5453 32.0003 43.5453C31.3101 43.5453 30.7503 44.1051 30.7503 44.7953V56.3438H29.4379C28.7142 56.3438 28.1254 55.755 28.1254 55.0313V40.9201H29.4382C31.5403 40.9201 33.2507 39.2097 33.2507 37.1076V29.42C33.2507 25.9997 31.7493 22.9241 29.3717 20.8157C30.0526 20.6062 30.7577 20.4789 31.4713 20.4365C31.6466 20.4482 31.8227 20.456 32.0003 20.456C32.1761 20.456 32.3498 20.4479 32.5226 20.4361C33.8612 20.5131 35.1222 20.8837 36.2422 21.4849C36.3813 21.6147 36.5466 21.7081 36.7237 21.7632C39.2879 23.3508 41.0004 26.1887 41.0004 29.42V37.1076C41.0004 37.8313 40.4117 38.4201 39.6879 38.4201H38.3752V29.42C38.3752 28.7297 37.8154 28.17 37.1252 28.17C36.4349 28.17 35.8752 28.7297 35.8752 29.42V55.0313C35.8752 55.755 35.2864 56.3438 34.5627 56.3438ZM44.8124 56.3438H43.5002V44.7953C43.5002 44.1051 42.9404 43.5453 42.2502 43.5453C41.5599 43.5453 41.0002 44.1051 41.0002 44.7953V56.3438H39.6878C38.964 56.3438 38.3752 55.755 38.3752 55.0313V40.9201H39.6879C41.79 40.9201 43.5004 39.2097 43.5004 37.1076V29.42C43.5004 25.9997 41.999 22.9241 39.6214 20.8157C40.3023 20.6062 41.0074 20.4789 41.7212 20.4364C41.8964 20.4481 42.0725 20.4559 42.2502 20.4559C42.4259 20.4559 42.5997 20.4477 42.7724 20.436C44.1109 20.513 45.3718 20.8835 46.4917 21.4846C46.6309 21.6146 46.7963 21.7081 46.9735 21.7632C49.5377 23.351 51.2502 26.1887 51.2502 29.4198V37.1074C51.2502 37.8312 50.6614 38.4199 49.9377 38.4199H48.6249V29.4198C48.6249 28.7296 48.0652 28.1698 47.3749 28.1698C46.6847 28.1698 46.1249 28.7296 46.1249 29.4198V55.0312C46.125 55.755 45.5362 56.3438 44.8124 56.3438ZM61.5 37.1076C61.5 37.8313 60.9113 38.4201 60.1875 38.4201H58.8748V29.42C58.8748 28.7297 58.315 28.17 57.6248 28.17C56.9345 28.17 56.3748 28.7297 56.3748 29.42V55.0313C56.3748 55.755 55.786 56.3438 55.0623 56.3438H53.7499V44.7953C53.7499 44.1051 53.1901 43.5453 52.4999 43.5453C51.8096 43.5453 51.2499 44.1051 51.2499 44.7953V56.3438H49.9375C49.2138 56.3438 48.625 55.755 48.625 55.0313V40.9201H49.9378C52.0399 40.9201 53.7503 39.2097 53.7503 37.1076V29.42C53.7503 25.9997 52.2489 22.9241 49.8713 20.8157C50.5522 20.6062 51.2573 20.4789 51.9709 20.4365C52.1461 20.4482 52.3223 20.456 52.4999 20.456C52.6756 20.456 52.8494 20.4479 53.0221 20.4361C57.7425 20.7077 61.5 24.6327 61.5 29.42V37.1076Z" fill="black"/>
<path d="M6.37524 28.1707C5.68499 28.1707 5.12524 28.7307 5.12524 29.421C5.12524 30.1114 5.68499 30.671 6.37524 30.671C7.06549 30.671 7.62524 30.1113 7.62524 29.421V29.4202C7.62524 28.7299 7.06549 28.1707 6.37524 28.1707Z" fill="black"/>
</svg>
