<svg width="24" height="24" viewBox="0 0 24 24" fill="none" xmlns="http://www.w3.org/2000/svg">
<rect width="24" height="24" fill="white"/>
<path d="M23.4735 5.82803C24 7.67081 24 11.6196 24 11.6196C24 11.6196 24 15.5246 23.4735 17.4112C23.2102 18.4642 22.3766 19.254 21.3675 19.5172C19.4808 19.9999 12.0219 19.9999 12.0219 19.9999C12.0219 19.9999 4.5192 19.9999 2.63254 19.5172C1.6234 19.254 0.789762 18.4642 0.526508 17.4112C0 15.5246 0 11.6196 0 11.6196C0 11.6196 0 7.67081 0.526508 5.82803C0.789762 4.77501 1.6234 3.94137 2.63254 3.67812C4.5192 3.15161 12.0219 3.15161 12.0219 3.15161C12.0219 3.15161 19.4808 3.15161 21.3675 3.67812C22.3766 3.94137 23.2102 4.77501 23.4735 5.82803ZM9.5649 15.1735L15.7952 11.6196L9.5649 8.06569V15.1735Z" fill="black"/>
</svg>
